<svg xmlns="http://www.w3.org/2000/svg" viewBox="0 0 25.426 16.217"><defs><style>.a{fill:#61c2ab;}.b{fill:#df5c4e;}.c{fill:#f0c960;}.d{fill:#ef934a;}.e{fill:#cdeef9;}.f{fill:#f4efef;}</style></defs><g transform="translate(0 -92)"><path class="a" d="M27.026,95.582A1.572,1.572,0,0,0,25.444,94H3.582A1.572,1.572,0,0,0,2,95.582v12.653a1.572,1.572,0,0,0,1.582,1.582H25.444a1.572,1.572,0,0,0,1.582-1.582V95.582Zm-2,11.232h-4.4v-1.4h4.4Zm-10.01-1.4h4.4v1.4h-4.4Zm-1.2,1.4h-4.2v-1.4h4.2ZM4,105.412h4.4v1.4H4Z" transform="translate(-1.9 -1.9)"/><path class="b" d="M325.382,160.744a1.974,1.974,0,0,0,.761-.14l.821-.541h0a2.207,2.207,0,0,1-.6-1.5,2.011,2.011,0,0,1,.36-1.181c.08-.1.16-.22.24-.3a2.176,2.176,0,1,0-1.582,3.664Z" transform="translate(-307.023 -61.177)"/><path class="c" d="M398.4,159.684A2.182,2.182,0,1,0,399.982,156a2.073,2.073,0,0,0-.861.18l-.721.5h0a2.207,2.207,0,0,1,.6,1.5A2.348,2.348,0,0,1,398.4,159.684Z" transform="translate(-378.459 -60.797)"/><path class="d" d="M386.4,171.1a2.154,2.154,0,0,0,.6,1.5,2.207,2.207,0,0,0,.6-1.5,2.154,2.154,0,0,0-.6-1.5l-.24.3A2.285,2.285,0,0,0,386.4,171.1Z" transform="translate(-367.06 -73.716)"/><path class="e" d="M47.986,167.181A1.183,1.183,0,0,0,46.8,166H43.581a1.183,1.183,0,0,0-1.181,1.181V168.8a1.183,1.183,0,0,0,1.181,1.181H46.8a1.183,1.183,0,0,0,1.181-1.181Z" transform="translate(-40.278 -70.296)"/><g transform="translate(2.102 103.712)"><rect class="f" width="4.405" height="1.401"/><rect class="f" width="4.204" height="1.401" transform="translate(5.606)"/><rect class="f" width="4.405" height="1.401" transform="translate(11.011)"/><rect class="f" width="4.405" height="1.401" transform="translate(16.617)"/></g><path d="M23.644,108.217H1.782A1.786,1.786,0,0,1,0,106.435V93.782A1.786,1.786,0,0,1,1.782,92H23.644a1.786,1.786,0,0,1,1.782,1.782v12.653A1.786,1.786,0,0,1,23.644,108.217ZM1.782,92.4A1.384,1.384,0,0,0,.4,93.782v12.653a1.384,1.384,0,0,0,1.381,1.381H23.644a1.384,1.384,0,0,0,1.381-1.381V93.782A1.384,1.384,0,0,0,23.644,92.4Z"/><path d="M321.582,156.765a2.382,2.382,0,1,1,2.382-2.382,2.337,2.337,0,0,1-.641,1.622.2.2,0,0,1-.28-.28,1.983,1.983,0,1,0-1.441.621,2.062,2.062,0,0,0,.7-.12.2.2,0,1,1,.14.38A2.712,2.712,0,0,1,321.582,156.765Z" transform="translate(-303.223 -56.997)"/><path d="M384.782,156.765a2.388,2.388,0,0,1-2.383-2.382,2.522,2.522,0,0,1,.38-1.3,2.186,2.186,0,0,1,.26-.34.2.2,0,0,1,.28.28,1.512,1.512,0,0,0-.22.28,2.067,2.067,0,0,0-.32,1.081,1.982,1.982,0,1,0,1.982-1.982,2.015,2.015,0,0,0-.781.16.2.2,0,1,1-.16-.36,2.558,2.558,0,0,1,.941-.2,2.388,2.388,0,0,1,2.382,2.382A2.358,2.358,0,0,1,384.782,156.765Z" transform="translate(-363.26 -56.997)"/><path d="M45,164.785H41.781A1.384,1.384,0,0,1,40.4,163.4v-1.622a1.384,1.384,0,0,1,1.381-1.381H45a1.384,1.384,0,0,1,1.381,1.381V163.4A1.384,1.384,0,0,1,45,164.785Zm-3.243-4a.983.983,0,0,0-.981.981v1.622a.983.983,0,0,0,.981.981h3.223a.983.983,0,0,0,.981-.981h0v-1.622a.983.983,0,0,0-.981-.981Z" transform="translate(-38.378 -64.976)"/><path d="M44.6,321.8H40.2a.189.189,0,0,1-.2-.2v-1.4a.189.189,0,0,1,.2-.2h4.4a.189.189,0,0,1,.2.2v1.4A.189.189,0,0,1,44.6,321.8Zm-4.2-.4h4v-1h-4Z" transform="translate(-37.998 -216.588)"/><path d="M156.4,321.8h-4.2a.189.189,0,0,1-.2-.2v-1.4a.189.189,0,0,1,.2-.2h4.2a.189.189,0,0,1,.2.2v1.4A.189.189,0,0,1,156.4,321.8Zm-4-.4h3.8v-1h-3.8Z" transform="translate(-144.392 -216.588)"/><path d="M264.6,321.8h-4.4a.189.189,0,0,1-.2-.2v-1.4a.189.189,0,0,1,.2-.2h4.4a.189.189,0,0,1,.2.2v1.4A.189.189,0,0,1,264.6,321.8Zm-4.2-.4h4v-1h-4Z" transform="translate(-246.987 -216.588)"/><path d="M376.6,321.8h-4.4a.189.189,0,0,1-.2-.2v-1.4a.189.189,0,0,1,.2-.2h4.4a.189.189,0,0,1,.2.2v1.4A.189.189,0,0,1,376.6,321.8Zm-4.2-.4h4v-1h-4Z" transform="translate(-353.381 -216.588)"/><path d="M50.4,212.4H46.2a.2.2,0,1,1,0-.4h4.2a.2.2,0,1,1,0,.4Z" transform="translate(-43.698 -113.994)"/><path d="M50.4,188.4H46.2a.2.2,0,0,1,0-.4h4.2a.2.2,0,0,1,0,.4Z" transform="translate(-43.698 -91.195)"/></g></svg>