<?xml version="1.0" encoding="iso-8859-1"?>
<!-- Generator: Adobe Illustrator 19.0.0, SVG Export Plug-In . SVG Version: 6.00 Build 0)  -->
<svg xmlns="http://www.w3.org/2000/svg" xmlns:xlink="http://www.w3.org/1999/xlink" version="1.1" id="Layer_1" x="0px" y="0px" viewBox="0 0 508.4 508.4" style="enable-background:new 0 0 508.4 508.4;" xml:space="preserve">
<path style="fill:#EF934A;" d="M422.2,148.8c0-14.8-12.4-26.4-27.2-26.4H58.6c-14.8,0-20.4,3.2-20.4,18V152v40.8v13.6v210.8v17.2  v40.8c0,14.8,10.8,31.2,25.6,31.2H425c14.8,0,29.2-16.4,29.2-31.2v-92.8h1.2c7.6,0,14.8-8.4,14.8-16V312c0-7.6-7.2-9.6-14.8-9.6  h-1.2v-21.2v-74.8v-17.2c0-14.8-10.4-27.2-25.2-27.2h-6.8V148.8z"/>
<path style="fill:#E8BB85;" d="M410.2,450.8c0,3.6-2,11.6-5.6,11.6H57.4L47,459.6l-8.8-8.8V218.4h366.4c3.6,0,5.6,0.8,5.6,4.4V450.8  z"/>
<path style="fill:#E07D46;" d="M470.2,368.8c0,7.6-6,13.6-13.6,13.6H327.8c-7.6,0-13.6-6-13.6-13.6V312c0-7.6,6-13.6,13.6-13.6  h128.8c7.6,0,13.6,6,13.6,13.6L470.2,368.8L470.2,368.8z"/>
<circle style="fill:#B44F2B;" cx="357.4" cy="331.2" r="24"/>
<path style="fill:#E07D46;" d="M425.8,162.4c-1.6-13.2-12.8-24-26.8-24H77.4c-6.4,0-12,5.2-12,12c0,6.4,5.2,12,12,12H425.8z"/>
<path style="fill:#54B265;" d="M257,203.2l83.6-104.8h-34.4v-96h-100v96h-34.8L257,203.2z"/>
<g>
	<path style="fill:#CCCCCC;" d="M278.6,172.4L278.6,172.4L278.6,172.4z"/>
	<path style="fill:#CCCCCC;" d="M291,156.8L291,156.8L291,156.8z"/>
	<path style="fill:#CCCCCC;" d="M190.6,113.2L190.6,113.2L190.6,113.2z"/>
</g>
<path d="M259,207.2c-1.2,0-2.4-0.4-3.2-1.6L168.2,98.8c-0.8-1.2-1.2-2.8-0.4-4.4c0.8-1.2,2-2.4,3.6-2.4h28.8V4c0-2.4,1.6-4,4-4h100  c2.4,0,4,1.6,4,4v88h32.4c1.6,0,2.8,0.8,3.6,2.4c0.8,1.2,0.4,2.8-0.4,4.4l-81.6,106.8C261.4,206.4,260.2,207.2,259,207.2L259,207.2z   M179.8,100.4l78.8,96.4l73.6-96.4h-28.4c-2.4,0-4-1.6-4-4v-88h-92v88c0,2.4-1.6,4-4,4H179.8z"/>
<path d="M433.4,508.4H72.2c-17.6,0-35.6-18-39.6-33.6c0-0.4,0-0.8,0-1.2V198.4c0-2.4,1.6-4,4-4s4,1.6,4,4v274.8  c4,14,19.2,27.2,32,27.2h361.2c12.4,0,18.8-13.6,18.8-26.8v-91.2c0-2.4,1.6-4,4-4s4,1.6,4,4v91.2C460.2,490.8,451,508.4,433.4,508.4  z"/>
<path d="M238.2,184.4H68.6c-17.6,0-36.4-2-36.4-25.2c0-2.4,1.6-4,4-4s4,1.6,4,4c0,12,4,17.2,28.4,17.2h169.6c2.4,0,4,1.6,4,4  S240.6,184.4,238.2,184.4z"/>
<path d="M456.2,298.4c-2.4,0-4-1.6-4-4v-95.2c0-11.6-4.4-14.8-18.8-14.8H278.2c-2.4,0-4-1.6-4-4s1.6-4,4-4h155.2  c14,0,26.8,2.8,26.8,22.8v95.2C460.2,296.8,458.6,298.4,456.2,298.4z"/>
<path d="M419,145.2c-2.4,0-4-1.6-4-4c0-13.2-3.6-16.8-16-16.8h-72.8c-2.4,0-4-1.6-4-4s1.6-4,4-4H399c17.2,0,24,7.2,24,24.8  C423,143.2,421.4,145.2,419,145.2z"/>
<path d="M36.2,418.4c-2.4,0-4-1.6-4-4V139.2c0-0.4,0-0.8,0-1.2c2.8-10,11.6-21.6,39.6-21.6h118c2.4,0,4,1.6,4,4s-1.6,4-4,4h-118  c-18,0-28.8,5.2-32,15.2v274.8C40.2,416.8,38.6,418.4,36.2,418.4z"/>
<path d="M456.2,278.4c-2.4,0-4-1.6-4-4v-90.8c0-11.6-4.4-15.2-18.8-15.2H294.2c-2.4,0-4-1.6-4-4s1.6-4,4-4h139.2  c13.2,0,26.8,2.8,26.8,23.2v90.8C460.2,276.8,458.6,278.4,456.2,278.4z"/>
<path d="M226.2,168.4h-150c-8.8,0-14.4-10-14.4-19.6c0-10,6-16.4,14.4-16.4h126c2.4,0,4,1.6,4,4s-1.6,4-4,4h-126  c-5.6,0-6.4,5.2-6.4,8.4c0,5.6,2.8,11.6,6.4,11.6h150c2.4,0,4,1.6,4,4S228.6,168.4,226.2,168.4z"/>
<path d="M426.6,164.4c-2,0-3.6-1.6-4-3.6c-1.6-11.6-12-20.4-24-20.4h-84.4c-2.4,0-4-1.6-4-4s1.6-4,4-4H399c16,0,30,12,31.6,27.6  c0.4,2-1.2,4-3.6,4.4C427,164.4,427,164.4,426.6,164.4z"/>
<path d="M458.6,384.4H330.2c-9.6,0-17.6-8-17.6-17.6v-52.4c0-9.6,8-17.6,17.6-17.6h128.4c9.6,0,17.6,8,17.6,17.6v52.4  C476.2,376.4,468.2,384.4,458.6,384.4z M329.8,304.4c-5.2,0-9.6,4.4-9.6,9.6v52.4c0,5.2,4.4,9.6,9.6,9.6h128.4  c5.2,0,9.6-4.4,9.6-9.6V314c0-5.2-4.4-9.6-9.6-9.6H329.8z"/>
<path d="M361.8,360.4c-15.6,0-28-12.8-28-28s12.8-28,28-28s28,12.4,28,28S377.4,360.4,361.8,360.4z M361.8,312.4  c-11.2,0-20,9.2-20,20c0,11.2,9.2,20,20,20c11.2,0,20-9.2,20-20C381.8,321.2,373,312.4,361.8,312.4z"/>
<path d="M361.8,344.4c-6.8,0-12-5.2-12-12s5.2-12,12-12c2.4,0,4,1.6,4,4s-1.6,4-4,4s-4,1.6-4,4s1.6,4,4,4s4-1.6,4-4s1.6-4,4-4  s4,1.6,4,4C373.8,339.2,368.2,344.4,361.8,344.4z"/>
<path d="M410.6,468.4H64.2c-17.2,0-32-14.8-32-32.4c0-2.4,1.6-4,4-4s4,1.6,4,4c0,13.2,11.2,24.4,24,24.4h342.4l-0.8-78.4  c0-2.4,1.6-4,4-4l0,0c2,0,4,1.6,4,4l0.8,82.4c0,1.2-0.4,2-1.2,2.8C412.6,468,411.8,468.4,410.6,468.4z"/>
<path d="M410.6,277.6L410.6,277.6c-2.4,0-4-2-4-4l0.4-48.8H66.6c-9.6,0-20.8,0-27.6-6.8c-4.4-4.4-6.4-10.8-6.4-19.6c0-2.4,1.6-4,4-4  s4,1.6,4,4c0,6.4,1.2,11.2,4.4,14c4.8,4.8,13.6,4.8,22,4.4h2h342.4c1.2,0,2,0.4,2.8,1.2c0.8,0.8,1.2,1.6,1.2,2.8l-0.4,52.8  C414.6,275.6,412.6,277.6,410.6,277.6z"/>
<g>
</g>
<g>
</g>
<g>
</g>
<g>
</g>
<g>
</g>
<g>
</g>
<g>
</g>
<g>
</g>
<g>
</g>
<g>
</g>
<g>
</g>
<g>
</g>
<g>
</g>
<g>
</g>
<g>
</g>
</svg>
