<?xml version="1.0" encoding="iso-8859-1"?>
<!-- Generator: Adobe Illustrator 19.0.0, SVG Export Plug-In . SVG Version: 6.00 Build 0)  -->
<svg xmlns="http://www.w3.org/2000/svg" xmlns:xlink="http://www.w3.org/1999/xlink" version="1.1" id="Layer_1" x="0px" y="0px" viewBox="0 0 506.8 506.8" style="enable-background:new 0 0 506.8 506.8;" xml:space="preserve">
<path style="fill:#EF934A;" d="M425.4,149.6c0-14.8-13.6-28.8-28.4-28.8H67c-5.6,0-19.6,1.2-23.2,4.4c-2,2-7.6,5.2-7.6,11.6  c0,4.4-2.8,8.4-2.8,12.8l0.8,3.2l3.2,40.8v13.6v210.4v16.8v40.8c0,14.8,14.4,25.6,29.2,25.6h360c14.8,0,26.8-10.8,26.8-25.6v-94.4  l0,0c7.6,0,16-6.8,16-14.4V312c0-7.6-8.8-11.6-16-11.6l0,0v-18.8v-74.4v-16.8c0-14.8-7.6-29.6-22.8-29.6h-5.2V149.6z"/>
<path style="fill:#E8BB85;" d="M410.2,452.8c0,3.6-3.2,6-6.8,6H46.2l-10.4-11.2l2.8-228.8h365.2c3.6,0,6.8,3.2,6.8,6.8v227.2H410.2z  "/>
<path style="fill:#E07D46;" d="M469.4,367.2c0,7.6-6,13.6-13.6,13.6H327c-7.6,0-13.6-6-13.6-13.6v-56.8c0-7.6,6-13.6,13.6-13.6  h128.8c7.6,0,13.6,6,13.6,13.6L469.4,367.2L469.4,367.2z"/>
<circle style="fill:#B44F2B;" cx="360.6" cy="333.2" r="23.6"/>
<path style="fill:#E07D46;" d="M427.4,162c-1.6-13.2-12.8-25.2-26.8-25.2H80.2c-6.4,0-12,6.8-12,13.2c0,6.4,5.2,12,12,12H427.4z"/>
<path style="fill:#DF5C4E;" d="M205.4,204.8h100v-96h34.8L253,2.4l-87.2,106.4h39.6L205.4,204.8L205.4,204.8z"/>
<path d="M303.4,210.8h-100c-2.4,0-4-1.6-4-4v-92h-29.6c-1.6,0-2.8-0.8-3.6-2.4c-0.8-1.2-0.4-3.2,0.4-4.4L253.8,1.6  c0.8-0.8,2-1.6,3.2-1.6s2.4,0.4,3.2,1.6l82,106.4c0.8,1.2,1.2,2.8,0.4,4.4s-2,2.4-3.6,2.4h-31.6v92  C307.4,209.2,305.8,210.8,303.4,210.8z M207.4,202.8h92v-92c0-2.4,1.6-4,4-4H331l-74-96l-78.8,96h25.2c2.4,0,4,1.6,4,4V202.8z"/>
<path d="M432.6,506.8H71.4c-16.8,0-35.2-14.4-39.6-31.6c0-0.4,0-0.8,0-1.2V196.8c0-2.4,1.6-4,4-4s4,1.6,4,4v276.8  c3.6,13.2,18.8,25.2,31.6,25.2h361.2c13.2,0,18.8-12.4,18.8-24.4v-93.6c0-2.4,1.6-4,4-4s4,1.6,4,4v93.6  C459.4,493.6,448.2,506.8,432.6,506.8z"/>
<path d="M201.4,182.8h-134c-17.6,0-36-2-36-25.2c0-2.4,1.6-4,4-4s4,1.6,4,4c0,12,4,17.2,28,17.2h134c2.4,0,4,1.6,4,4  S203.8,182.8,201.4,182.8z"/>
<path d="M455.4,296.8c-2.4,0-4-1.6-4-4v-93.2c0-12-5.2-16.8-18.8-16.8H305.4c-2.4,0-4-1.6-4-4s1.6-4,4-4h127.2  c18,0,26.8,8,26.8,24.8v93.2C459.4,295.2,457.8,296.8,455.4,296.8z"/>
<path d="M419,143.6c-2.4,0-4-1.6-4-4c0-12.8-4-16.8-17.2-16.8h-92.4c-2.4,0-4-1.6-4-4s1.6-4,4-4h92.8c17.2,0,25.2,7.6,25.2,24.8  C423,141.6,421.4,143.6,419,143.6z"/>
<path d="M35.4,416.8c-2.4,0-4-1.6-4-4V139.6c0-0.4,0-0.8,0-1.2c4.8-17.6,23.6-24,39.6-24h130.4c2.4,0,4,1.6,4,4s-1.6,4-4,4H71  c-12.8,0-28,4.4-31.6,17.6v272.8C39.4,415.2,37.8,416.8,35.4,416.8z"/>
<path d="M455.4,276.8c-2.4,0-4-1.6-4-4V184c0-12.4-5.2-17.2-18.8-17.2H305.4c-2.4,0-4-1.6-4-4s1.6-4,4-4h127.2  c18,0,26.8,8.4,26.8,25.2v88.8C459.4,275.2,457.8,276.8,455.4,276.8z"/>
<path d="M201.4,166.8h-126c-8.8,0-14.4-10-14.4-19.6c0-10,6-16.4,14.4-16.4h126c2.4,0,4,1.6,4,4s-1.6,4-4,4h-126  c-5.6,0-6.4,5.2-6.4,8.4c0,5.6,2.8,11.6,6.4,11.6h126c2.4,0,4,1.6,4,4S203.8,166.8,201.4,166.8z"/>
<path d="M427.8,162.8c-2,0-3.6-1.6-4-3.6c-1.2-10.8-13.6-20.4-26-20.4h-92.4c-2.4,0-4-1.6-4-4s1.6-4,4-4h92.8  c16.4,0,32,12.8,34,27.6c0.4,2-1.2,4-3.6,4.4C428.2,162.8,428.2,162.8,427.8,162.8z"/>
<path d="M457.8,382.8H329.4c-9.6,0-17.6-8-17.6-17.6v-52.4c0-9.6,8-17.6,17.6-17.6h128.4c9.6,0,17.6,8,17.6,17.6v52.4  C475.4,374.8,467.4,382.8,457.8,382.8z M329,302.8c-5.2,0-9.6,4.4-9.6,9.6v52.4c0,5.2,4.4,9.6,9.6,9.6h128.4c5.2,0,9.6-4.4,9.6-9.6  v-52.4c0-5.2-4.4-9.6-9.6-9.6H329z"/>
<path d="M361,361.2c-15.6,0-28-12.8-28-28s12.8-28,28-28s28,12.4,28,28S376.2,361.2,361,361.2z M361,312.8c-11.2,0-20,9.2-20,20  c0,11.2,9.2,20,20,20c11.2,0,20-9.2,20-20S371.8,312.8,361,312.8z"/>
<path d="M360.6,345.2c-6.8,0-12-5.2-12-12s5.2-12,12-12c2.4,0,4,1.6,4,4s-1.6,4-4,4s-4,1.6-4,4s1.6,4,4,4s4-1.6,4-4s1.6-4,4-4  s4,1.6,4,4C372.6,339.6,367.4,345.2,360.6,345.2z"/>
<path d="M409.8,466.8H63.4c-17.6,0-31.6-14-31.6-31.6c0-2.4,1.6-4,4-4s4,1.6,4,4c0,12.8,10.8,23.6,23.6,23.6h342.4l-0.8-78  c0-2.4,1.6-4,4-4l0,0c2,0,4,1.6,4,4l0.8,82c0,1.2-0.4,2-1.2,2.8C411.8,466.4,410.6,466.8,409.8,466.8z"/>
<path d="M409.8,276.8C409.4,276.8,409.4,276.8,409.8,276.8c-2.4,0-4-2-4-4l0.4-50H65c-10,0-20,0-26.8-6.4  c-4.4-4.4-6.4-10.8-6.4-19.2c0-2.4,1.6-4,4-4s4,1.6,4,4c0,6.4,1.2,10.8,4,13.6c4.4,4.4,12.4,4.4,21.2,4.4h2.8h342.4  c1.2,0,2,0.4,2.8,1.2c0.8,0.8,1.2,1.6,1.2,2.8l-0.4,54C413.4,275.2,411.8,276.8,409.8,276.8z"/>
<g>
</g>
<g>
</g>
<g>
</g>
<g>
</g>
<g>
</g>
<g>
</g>
<g>
</g>
<g>
</g>
<g>
</g>
<g>
</g>
<g>
</g>
<g>
</g>
<g>
</g>
<g>
</g>
<g>
</g>
</svg>
