<?xml version="1.0" encoding="utf-8"?>
<!-- Generator: Adobe Illustrator 23.0.1, SVG Export Plug-In . SVG Version: 6.00 Build 0)  -->
<svg version="1.1" id="Layer_1" xmlns="http://www.w3.org/2000/svg" xmlns:xlink="http://www.w3.org/1999/xlink" x="0px" y="0px"
	 viewBox="0 0 509 509" style="enable-background:new 0 0 509 509;" xml:space="preserve">
<style type="text/css">
	.st0{fill:#EF934A;}
	.st1{fill:#E8BB85;}
	.st2{fill:#E07D46;}
	.st3{fill:#B44F2B;}
	.st4{fill:#54B265;}
</style>
<path class="st0" d="M448.5,94.6c0-17.2-14.4-31.6-32-31.6H40.9C23.7,63,8.5,77.4,8.5,94.6v4v47.6v16V407v19.6v47.6
	c0,17.6,15.2,28.8,32.4,28.8h415.2c17.2,0,32.4-11.6,32.4-28.8V363h3.2c8.8,0,12.8-6.8,12.8-15.2v-63.2c0-8.8-4-17.2-12.8-17.2h-3.2
	v-18v-86.8V143c0-17.2-14.8-35.2-32.4-35.2h-7.6V94.6L448.5,94.6z"/>
<path class="st1" d="M440.5,450.6c0,4.4-3.6,4.4-8,4.4H24.9L8.5,437V161.8l9.2,13.2h414.8c4.4,0,8,6.4,8,10.4L440.5,450.6
	L440.5,450.6z"/>
<path class="st2" d="M500.5,347c0,8.8-7.2,16-16,16h-148c-8.8,0-16-7.2-16-16v-64c0-8.8,7.2-16,16-16h148.4c8.8,0,16,7.2,16,16
	C500.5,283,500.5,347,500.5,347z"/>
<circle class="st3" cx="377.3" cy="316.2" r="27.6"/>
<polygon class="st4" points="43.3,93.4 418.9,3.4 443.3,104.6 46.9,106.6 "/>
<path class="st4" d="M121.3,106.6l242.8-56.8c4,17.6,21.6,28.4,39.2,24.4l7.6,32.4H121.3z"/>
<path class="st4" d="M183.3,106.6c7.2-10.8,16.8-18.4,28.4-21.2c14.4-3.2,29.6,1.2,42.8,12l9.2,9.2
	C263.7,106.6,183.3,106.6,183.3,106.6z"/>
<path d="M460.1,509H44.9c-18.8,0-42.4-18.4-42.4-38.8V155c0-2.4,1.6-4,4-4s4,1.6,4,4v315.2c0,15.6,20,30.8,34.4,30.8h415.2
	c14.8,0,22.4-15.6,22.4-30.8V367c0-2.4,1.6-4,4-4s4,1.6,4,4v103.2C490.5,489.4,480.1,509,460.1,509z"/>
<path d="M486.5,267c-2.4,0-4-1.6-4-4V157.8c0-9.2-2.8-24.8-22.4-24.8H45.7c-2.8,0.4-26.4,2-37.2-8c-4-3.6-6-8-6-13.6
	c0-2.4,1.6-4,4-4s4,1.6,4,4c0,3.2,1.2,5.6,3.2,7.6c7.2,6.8,25.2,6.4,31.2,6h0.4h414.8c18.8,0,30.4,12.4,30.4,32.8V263
	C490.5,265.4,488.9,267,486.5,267z"/>
<path d="M486.5,247c-2.4,0-4-1.6-4-4V138.2c0-9.2-2.8-25.2-22.4-25.2H45.3c-2,0-3.6-1.6-4-3.6l-2.4-15.6c-0.4-2,1.2-4.4,3.2-4.4
	c2-0.4,4.4,1.2,4.4,3.2l1.6,12h411.2c18.8,0,30.4,12.8,30.4,33.2V243C490.5,245.4,488.9,247,486.5,247z"/>
<path d="M450.5,103c-2.4,0-4-1.6-4-4v-8.4c0-9.6-5.2-19.6-12.8-24.8c-2-1.2-2.4-3.6-1.2-5.6s3.6-2.4,5.6-1.2c10,6.8,16,19.2,16,31.6
	V99C454.5,101.4,452.9,103,450.5,103z"/>
<path d="M6.5,407c-2.4,0-4-1.6-4-4V90.6c0-19.2,22-29.6,42.4-29.6h115.6c2.4,0,4,1.6,4,4s-1.6,4-4,4H44.9
	c-14.4,0-34.4,6.8-34.4,21.6V403C10.5,405.4,8.9,407,6.5,407z"/>
<path d="M452.1,110.6c-2,0-3.6-1.6-4-3.6c-0.8-8-5.2-14.8-12-19.6c-2-1.2-2.4-3.6-1.2-5.6s3.6-2.4,5.6-1.2
	c8.4,5.6,14,14.8,15.6,25.2c0.4,2-1.2,4-3.6,4.4C452.1,110.6,452.1,110.6,452.1,110.6z"/>
<path d="M486.5,369H338.1c-10.8,0-20-8.8-20-20v-64.4c0-10.8,8.8-20,20-20h148.4c10.8,0,20,8.8,20,20V349
	C506.5,360.2,497.7,369,486.5,369z M338.5,273c-6.4,0-12,5.2-12,12v64.4c0,6.4,5.2,12,12,12h148.4c6.4,0,12-5.2,12-12V285
	c0-6.4-5.2-12-12-12H338.5z"/>
<path d="M377.3,343.8c-17.6,0-31.6-14.4-31.6-31.6s14.4-31.6,31.6-31.6s31.6,14.4,31.6,31.6S394.5,343.8,377.3,343.8z M377.3,288.2
	c-13.2,0-23.6,10.8-23.6,23.6s10.8,23.6,23.6,23.6s23.6-10.8,23.6-23.6S390.1,288.2,377.3,288.2z"/>
<path d="M377.3,327.8c-8.8,0-16-7.2-16-16s7.2-16,16-16c2.4,0,4,1.6,4,4s-1.6,4-4,4c-4.4,0-8,3.6-8,8s3.6,8,8,8s8-3.6,8-8
	c0-2.4,1.6-4,4-4s4,1.6,4,4C392.9,320.6,385.7,327.8,377.3,327.8z"/>
<path d="M432.5,461H41.3c-20,0-38.4-18-38.4-37.2c0-2.4,1.6-4,4-4s4,1.6,4,4c0,14.8,15.2,29.2,30.4,29.2h391.2c1.6,0,2-0.4,2-0.4
	c0.4-0.4,0.4-3.2,0.4-4s0-1.6,0-2V367c0-2.4,1.6-4,4-4s4,1.6,4,4v79.2c0,0.4,0,1.2,0,1.6c0,3.2,0.4,7.2-2.4,10
	C438.1,460.2,435.7,461,432.5,461z"/>
<path d="M438.5,243c-2.4,0-4-1.6-4-4v-58l0,0H45.7c-0.8,0-23.6,0.8-35.6-10.8c-4.8-4.8-7.2-10.8-7.2-17.6c0-2.4,1.6-4,4-4s4,1.6,4,4
	c0,4.8,1.6,8.8,4.8,12c9.6,9.2,29.6,8.8,30,8.8h389.2c2.4,0,4.8,0,6.4,1.6s1.6,3.6,1.6,6.4V239C442.5,241.4,440.9,243,438.5,243z"/>
<path d="M443.3,110.6c-2,0-3.6-1.2-4-3.2L416.1,9l-372,87.2c-2,0.4-4.4-0.8-4.8-2.8c-0.4-2,0.8-4.4,2.8-4.8L417.7,0.2
	c1.2-0.4,2,0,3.2,0.4c0.8,0.4,1.6,1.6,1.6,2.4l24,102.4c0.4,2-0.8,4.4-2.8,4.8C444.1,110.6,443.7,110.6,443.3,110.6z"/>
<path d="M410.9,110.6c-2,0-3.6-1.2-4-3.2l-6.8-28.8c-17.2,2-33.2-8-38.8-24.4l-239.2,56c-2,0.4-4.4-0.8-4.8-2.8s0.8-4.4,2.8-4.8
	l242.8-56.8c2-0.4,4.4,0.8,4.8,2.8c3.6,15.2,19.2,24.8,34.4,21.2c2-0.4,4.4,0.8,4.8,2.8l7.6,32.4c0.4,2-0.8,4.4-2.8,4.8
	C411.3,110.6,410.9,110.6,410.9,110.6z"/>
<path d="M183.3,110.6c-0.8,0-1.6-0.4-2-0.8c-2-1.2-2.4-3.6-1.2-5.6c8-12,18.4-20,30.8-22.8c15.2-3.6,31.6,0.8,46,12.4
	c1.6,1.2,2,4,0.8,5.6s-4,2-5.6,0.8c-12.8-10-26.4-14-39.2-11.2c-10.4,2.4-19.2,9.2-26,19.6C186.1,109.8,184.9,110.6,183.3,110.6z"/>
<path d="M398.9,60.2c-2,0-3.6-1.2-4-3.2l-3.2-14c-0.4-2,0.8-4.4,2.8-4.8s4.4,0.8,4.8,2.8l3.2,14c0.4,2-0.8,4.4-2.8,4.8
	C399.7,59.8,399.3,60.2,398.9,60.2z"/>
<path d="M382.5,49.4c-2,0-3.6-1.2-4-3.2s0.8-4.4,2.8-4.8l13.2-3.2c2-0.4,4.4,0.8,4.8,2.8s-0.8,4.4-2.8,4.8L383.3,49
	C382.9,49.4,382.9,49.4,382.5,49.4z"/>
</svg>
