<svg xmlns="http://www.w3.org/2000/svg" viewBox="0 0 33.211 34.472"><defs><style>.a{fill:#fac5c5;}.b{fill:#f25555;}</style></defs><ellipse class="a" cx="16.606" cy="17.236" rx="16.606" ry="17.236" transform="translate(0 0)"/><g transform="translate(7.722 7.721)"><g transform="translate(0 0)"><path class="b" d="M16.274,19.628a1.447,1.447,0,0,1-1.075-.492L.456,2.866a1.8,1.8,0,0,1,0-2.374,1.422,1.422,0,0,1,2.151,0l14.743,16.27a1.8,1.8,0,0,1,0,2.374A1.449,1.449,0,0,1,16.274,19.628Z" transform="translate(1.25 0)"/><path class="b" d="M1.531,19.636a1.447,1.447,0,0,1-1.075-.492,1.8,1.8,0,0,1,0-2.374L15.2.5a1.422,1.422,0,0,1,2.151,0,1.8,1.8,0,0,1,0,2.374L2.606,19.144A1.447,1.447,0,0,1,1.531,19.636Z" transform="translate(-0.01 -0.008)"/></g></g></svg>